<?xml version="1.0" encoding="UTF-8"?><svg xmlns="http://www.w3.org/2000/svg" xmlns:xlink="http://www.w3.org/1999/xlink" height="910.3" preserveAspectRatio="xMidYMid meet" version="1.0" viewBox="191.7 100.7 751.7 910.3" width="751.7" zoomAndPan="magnify"><g><g><g><g><g id="change1_10"><path d="M910.3,618.4c14.7,19.9,17.6,45.9,13.4,69.7c-8.2,46.8-41.9,86.5-84,107c-0.3,0.3-0.7,0.5-1.1,0.6 c-1.8,0.8-3.5,0.7-4.9-0.1c-5.9-0.2-11.9-0.5-17.5-1.7c-6.9-1.5-13.7-3.5-20.2-6.1c-13.7-5.6-26.4-13.3-37.6-22.8 c-19.2-16.4-33.4-38-41.2-62c-7.4-22.7-9.8-48.6-3.9-71.9c2.8-11.1,8-22.2,16.6-30c9.1-8.4,21.4-12.1,33.7-10.5 c13,1.6,24.8,7.8,34.3,16.7c5.7,5.3,10.4,11.3,14.7,17.6c5.7-16.2,21.1-29.4,37.8-32.7C873.6,587.7,896.7,600,910.3,618.4z M910.8,684.3c2.8-20,0.7-42.2-11.8-58.8c-11-14.5-30.2-25.4-48.8-20.5c-15.3,4.1-29.7,19.4-27.5,36.1c0.9,7-7.5,10.9-11.6,4.7 c-12.6-18.8-31.3-45.1-57.4-41.5c-20.4,2.8-28,26.1-29.6,43.7c-1.9,21.3,1.6,43.2,10.2,62.9c9,20.6,22.7,38.4,40.6,52 c9.4,7.1,19.7,12.9,30.5,17.6c5.4,2.3,11,3.9,16.4,6.1c2.7,1.1,5.6,2,8.4,2.7c0.3-1.4,1.1-2.6,2.9-3.3 c21.8-9.2,40.7-24.8,54.3-44.2C899.5,724.8,908,705,910.8,684.3z" fill="#b79892"/></g><g id="change2_7"><path d="M899,625.5c12.5,16.6,14.6,38.8,11.8,58.8c-2.9,20.7-11.3,40.5-23.3,57.5c-13.6,19.3-32.5,35-54.3,44.2 c-1.7,0.7-2.6,2-2.9,3.3c-2.9-0.7-5.7-1.6-8.4-2.7c-5.4-2.2-11-3.8-16.4-6.1c-10.8-4.7-21.1-10.5-30.5-17.6 c-17.9-13.6-31.6-31.4-40.6-52c-8.6-19.6-12.1-41.5-10.2-62.9c1.6-17.7,9.2-40.9,29.6-43.7c26.1-3.6,44.9,22.7,57.4,41.5 c4.2,6.2,12.5,2.3,11.6-4.7c-2.2-16.8,12.1-32,27.5-36.1C868.8,600.1,888.1,611,899,625.5z" fill="#ffd1df"/></g><g id="change1_11"><path d="M814.5,158.7c27.8,37.6,33.1,86.5,25.2,131.4c-15.4,88.2-78.9,163-158.3,201.7c-0.6,0.5-1.3,0.9-2.2,1 c-3.4,1.5-6.6,1.2-9.2-0.1c-11-0.3-22.5-1-33-3.2c-12.9-2.8-25.9-6.5-38.1-11.5c-25.8-10.6-49.7-25-70.9-43.1 c-36.2-30.8-62.9-71.6-77.7-116.7c-14-42.7-18.4-91.6-7.3-135.5c5.3-20.9,15.1-41.9,31.2-56.6c17.2-15.7,40.4-22.7,63.5-19.8 c24.5,3.1,46.6,14.7,64.6,31.5c10.7,10,19.6,21.3,27.8,33.1c10.8-30.6,39.7-55.3,71.3-61.5C745.3,100.7,788.8,124,814.5,158.7z M815.5,282.9c5.2-37.7,1.4-79.6-22.2-110.9c-20.7-27.4-57-47.9-91.9-38.6c-28.9,7.7-55.9,36.5-51.8,68.1 c1.7,13.3-14,20.6-21.9,8.8c-23.7-35.5-59-85-108.2-78.3c-38.5,5.3-52.8,49.1-55.8,82.4c-3.5,40.2,3,81.5,19.2,118.5 c17,38.8,42.8,72.3,76.6,98c17.7,13.4,37.1,24.3,57.4,33.1c10.1,4.4,20.7,7.4,30.9,11.5c5.2,2.1,10.5,3.7,15.9,5.1 c0.5-2.6,2.1-4.9,5.4-6.3c41.1-17.3,76.8-46.8,102.4-83.2C794.1,359.2,810.1,321.8,815.5,282.9z" fill="#b79892"/></g><g id="change2_8"><path d="M793.3,172c23.6,31.2,27.5,73.2,22.2,110.9c-5.4,39-21.4,76.3-43.9,108.3c-25.7,36.4-61.3,65.9-102.4,83.2 c-3.2,1.4-4.9,3.7-5.4,6.3c-5.4-1.4-10.8-3-15.9-5.1c-10.2-4.1-20.8-7.1-30.9-11.5c-20.3-8.9-39.7-19.7-57.4-33.1 c-33.8-25.6-59.6-59.2-76.6-98c-16.2-37-22.8-78.3-19.2-118.5c3-33.3,17.3-77.1,55.8-82.4c49.3-6.7,84.6,42.8,108.2,78.3 c7.8,11.7,23.6,4.4,21.9-8.8c-4.1-31.7,22.8-60.4,51.8-68.1C736.3,124.1,772.6,144.6,793.3,172z" fill="#ffd1df"/></g><g id="change1_12"><path d="M489.2,595c20.7,28,24.7,64.6,18.9,98.2c-11.5,65.9-58.9,121.7-118.2,150.6c-0.4,0.4-1,0.7-1.6,0.8 c-2.5,1.2-4.9,0.9-6.9-0.1c-8.2-0.2-16.8-0.8-24.6-2.4c-9.7-2.1-19.3-4.9-28.4-8.6c-19.3-7.9-37.1-18.7-53-32.2 c-27-23-46.9-53.5-58-87.2c-10.5-31.9-13.7-68.4-5.4-101.1c3.9-15.6,11.2-31.3,23.3-42.3c12.9-11.8,30.2-17,47.4-14.8 c18.3,2.3,34.8,11,48.3,23.5c8,7.4,14.6,15.9,20.8,24.7c8.1-22.8,29.7-41.3,53.2-45.9C437.6,551.7,470.1,569.1,489.2,595z M490,687.7c3.9-28.1,1-59.5-16.6-82.8c-15.4-20.4-42.6-35.8-68.6-28.8c-21.6,5.8-41.7,27.2-38.6,50.9 c1.3,9.9-10.5,15.4-16.3,6.6c-17.7-26.5-44-63.5-80.8-58.4c-28.7,3.9-39.4,36.6-41.6,61.5c-2.6,30,2.2,60.9,14.3,88.5 c12.7,28.9,31.9,54,57.2,73.1c13.2,10,27.7,18.1,42.9,24.7c7.5,3.3,15.5,5.5,23.1,8.6c3.8,1.6,7.8,2.8,11.9,3.8 c0.4-1.9,1.6-3.6,4-4.7c30.7-12.9,57.3-35,76.5-62.1C474,744.7,486,716.8,490,687.7z" fill="#b79892"/></g><g id="change2_9"><path d="M473.4,604.9c17.6,23.3,20.5,54.7,16.6,82.8c-4,29.1-16,57-32.8,80.9c-19.2,27.2-45.8,49.2-76.5,62.1 c-2.4,1-3.7,2.8-4,4.7c-4-1-8-2.2-11.9-3.8c-7.6-3.1-15.5-5.3-23.1-8.6c-15.2-6.6-29.7-14.7-42.9-24.7 c-25.2-19.1-44.5-44.2-57.2-73.1c-12.1-27.6-17-58.5-14.3-88.5c2.2-24.9,12.9-57.6,41.6-61.5c36.8-5,63.1,31.9,80.8,58.4 c5.9,8.8,17.6,3.3,16.3-6.6c-3.1-23.6,17-45.1,38.6-50.9C430.8,569.2,458,584.5,473.4,604.9z" fill="#ffd1df"/></g></g></g><g id="change2_1"><path d="M329.6,354.2c-15.1,1.2-30.3,2.4-45.4,3.6c1-1.3,1.9-2.5,2.8-3.8c4.3-6.1,8-12.6,12.3-18.6 c2.4-3.3-2.8-7.2-5.6-4.3c-5,5.2-10.5,9.8-15.4,15c-2.5,2.6-4.9,5.3-7.3,8c-0.6-7.4-1.1-14.8-1.8-22.2c-0.8-9.3-1.5-19.1-6.2-27.4 c-1.4-2.5-4.7-1.6-5.7,0.7c-3.5,9-2.6,19.2-2,28.6c0.5,7.1,0.9,14.2,1.4,21.3c-3.8-2.9-7.6-5.9-11.5-8.7c-2.9-2.1-5.8-4.2-8.9-6 c-3.6-2.1-7.7-3.8-11.2-6c-2.6-1.7-5.4,2.1-3.3,4.3c2.7,2.7,5,6.2,7.6,9.1c2.6,2.9,5.5,5.6,8.4,8.3c2,1.8,4.1,3.6,6.1,5.4 c-1.6,0.2-3.1,0.3-4.7,0.5c-10,1-20.1,1.6-29.9,4.4c-4.9,1.4-3.5,8,1.1,8.5c9.9,1,19.8-0.3,29.7-1.1c4.9-0.4,9.9-0.8,14.8-1.3 c-2,2.3-3.9,4.6-5.9,6.8c-4.9,5.6-10.6,10.8-14.8,17c-4.9,7.4,6,15.3,12.1,9.3c4.8-4.7,8.5-10.6,12.5-16 c0.7,10.5,1.5,21.1,2.2,31.6c0.7,9.5,15.5,9.5,14.8,0c-0.9-11.5-1.7-23-2.6-34.5c6.1,5.2,12.1,10.5,18,15.8 c8.9,7.9,19.8-5.8,10.1-13c-8.4-6.2-16.8-12.6-25.1-19c17.7-1.7,35.4-3.6,53-5.4C336.4,364.3,336.6,353.7,329.6,354.2z" fill="#ffd1df"/></g><g id="change2_2"><path d="M688.3,883.2c-9.1-0.2-18.4,1.1-27.5,1.8l-11.5,0.8c1.4-1.8,2.9-3.5,4.3-5.3c6-7.4,13.5-14.8,18.2-23 c4-7-5-13.2-10.7-8.3c-7.2,6.2-13,15.1-19.1,22.4c-1.1,1.4-2.3,2.7-3.4,4.1c-0.2-1.4-0.4-2.9-0.5-4.3c-0.5-4.4-1.1-8.9-2-13.3 c-0.4-1.9-0.7-3.8-1.3-5.6c-0.8-2.5-2.6-4.6-3.1-7.2c-0.6-2.5-4.2-1.8-4.3,0.6c-0.2,2.8-1.7,5.6-2,8.4c-0.2,1.8-0.3,3.5-0.3,5.3 c-0.1,4.6,0,9.1,0.2,13.7c0.2,4.2,0.3,8.4,0.5,12.5c-3.4-3.2-6.8-6.3-10.2-9.5c-4.6-4.2-9.5-9.5-15.6-11.3 c-3.1-0.9-6.4,2.2-5.4,5.4c1.8,5.8,6.8,10.3,10.9,14.7c1.1,1.2,2.2,2.3,3.3,3.5c-10.5,0.8-21,2.1-31.2,4.7c-4.8,1.2-3.2,7.5,1.1,8 c13.1,1.4,26.4,0.7,39.6-0.3c-3.6,4.4-7.1,8.8-10.5,13.3c-5.1,6.7-12.7,14.5-13.2,23.3c-0.1,2,2,3.4,3.9,2.9 c8.4-2.2,14.8-11.5,20.3-17.7c2.9-3.2,5.7-6.5,8.5-9.9c0.6,13.7,1.1,27.6,3,41.1c1.4,9.6,16.8,7.1,16.7-2.3 c-0.2-8.9-1.6-18-2.6-26.9c1.5,1.5,3.1,2.9,4.7,4.2c7.6,6.1,17.1-3.2,10.7-10.7c-4.2-5-9.5-9.3-14.3-13.9 c-1.2-1.1-2.4-2.2-3.5-3.4c-0.1-0.6-0.1-1.2-0.2-1.8c6.8-0.5,13.6-0.9,20.4-1.4c9.3-0.6,18.9-0.7,28.2-2.2 C697.2,894.5,695.2,883.4,688.3,883.2z" fill="#ffd1df"/></g><g id="change2_3"><path d="M799.2,937.1c-0.2-0.4-0.4-0.9-0.5-1.3c-0.3-0.6-0.8-1.1-1.4-1.5c-0.5-0.5-1.1-0.8-1.8-1 c-0.2,0-0.5-0.1-0.7-0.1c-0.1-0.1-0.3-0.1-0.4-0.2c-0.8-0.2-1.5-0.3-2.3-0.1c-0.5,0-1,0.1-1.4,0.4c-0.5,0.1-0.9,0.4-1.2,0.7 c-0.4,0.3-0.8,0.6-1,1c-0.4,0.4-0.6,0.8-0.7,1.2c-0.4,0.7-0.5,1.4-0.5,2.2c0.1,0.5,0.1,1,0.2,1.5c0.2,0.5,0.4,0.9,0.6,1.3 c0.3,0.4,0.6,0.8,0.9,1.1c0.4,0.3,0.8,0.6,1.1,0.9c0.5,0.2,0.9,0.4,1.4,0.6c0.8,0.2,1.5,0.3,2.3,0.1c0.4,0,0.8-0.1,1.1-0.3 c0.2,0,0.5-0.1,0.7-0.1c0.4-0.2,0.9-0.4,1.3-0.5c0.6-0.3,1.1-0.8,1.5-1.4c0.3-0.3,0.6-0.7,0.7-1.2c0.3-0.6,0.5-1.3,0.5-2.1 C799.3,938,799.2,937.6,799.2,937.1z" fill="#ffd1df"/></g><g id="change2_4"><path d="M586.3,689.8c-8.6,0-8.6,13.3,0,13.3C594.9,703.1,594.9,689.8,586.3,689.8z" fill="#ffd1df"/></g><g id="change2_5"><path d="M824.2,454.2c-0.5-1.8-1.4-3.3-2.7-4.6c-0.7-0.5-1.4-1.1-2.1-1.6c-1.6-0.9-3.4-1.4-5.2-1.4 c-1.4-0.1-2.8,0.2-4,0.9c-1.3,0.4-2.4,1.1-3.3,2.1c-1,0.9-1.7,2.1-2.1,3.3c-0.6,1.2-0.9,2.6-0.9,4c0.1,0.9,0.2,1.8,0.4,2.8 c0.5,1.8,1.4,3.3,2.7,4.6c0.7,0.5,1.4,1.1,2.1,1.6c1.6,0.9,3.4,1.4,5.2,1.4c1.4,0.1,2.8-0.2,4-0.9c1.3-0.4,2.4-1.1,3.3-2.1 c1-0.9,1.7-2.1,2.1-3.3c0.6-1.2,0.9-2.6,0.9-4C824.4,456,824.3,455.1,824.2,454.2z" fill="#ffd1df"/></g><g id="change2_6"><path d="M334.9,998.3c-8.1,0-8.2,12.7,0,12.7C343.1,1011,343.1,998.3,334.9,998.3z" fill="#ffd1df"/></g><g id="change1_1"><path d="M903.6,587.7c-7.5,0-7.6,11.7,0,11.7C911.1,599.5,911.1,587.7,903.6,587.7z" fill="#b79892"/></g><g id="change1_2"><path d="M929.2,570.4c-0.4-1.3-1-2.5-2-3.5c-0.5-0.4-1.1-0.8-1.6-1.2c-1.2-0.7-2.5-1.1-4-1.1c-1.1,0-2.1,0.2-3,0.7 c-1,0.3-1.8,0.9-2.5,1.6c-0.8,0.7-1.3,1.6-1.6,2.5c-0.5,0.9-0.7,1.9-0.7,3c0.1,0.7,0.2,1.4,0.3,2.1c0.4,1.3,1,2.5,2,3.5 c0.5,0.4,1.1,0.8,1.6,1.2c1.2,0.7,2.5,1.1,4,1.1c1.1,0,2.1-0.2,3-0.7c1-0.3,1.8-0.9,2.5-1.6c0.8-0.7,1.3-1.6,1.6-2.5 c0.5-0.9,0.7-1.9,0.7-3C929.3,571.8,929.3,571.1,929.2,570.4z" fill="#b79892"/></g><g id="change1_3"><path d="M934.7,597.5c-8.7,0-8.7,13.5,0,13.5C943.4,611,943.4,597.5,934.7,597.5z" fill="#b79892"/></g><g id="change1_4"><path d="M199.4,556c-7.7,0-7.7,11.9,0,11.9C207.1,567.9,207.1,556,199.4,556z" fill="#b79892"/></g><g id="change1_5"><path d="M221.4,506c-7.7,0-7.7,11.9,0,11.9C229,517.9,229,506,221.4,506z" fill="#b79892"/></g><g id="change1_6"><path d="M237.7,537.6l-0.1-0.9c0-0.1,0-0.2-0.1-0.4c-0.1-0.5-0.2-1-0.5-1.4c-0.1-0.5-0.3-1-0.6-1.4 c-0.6-1.2-1.5-2.1-2.6-2.9c-1-0.9-2.1-1.5-3.5-1.8c-0.9-0.1-1.8-0.2-2.7-0.4c-1.4-0.1-2.7,0.2-3.9,0.9c-0.9,0.2-1.6,0.7-2.2,1.3 c-1.1,0.7-2,1.7-2.6,2.9l-1,2.4c-0.5,1.8-0.5,3.6,0,5.4c0.2,0.5,0.4,0.9,0.6,1.4c0.4,1.3,1.1,2.4,2.1,3.3c0.1,0.1,0.2,0.2,0.3,0.3 c0.2,0.2,0.4,0.4,0.7,0.7c0.7,0.5,1.3,1,2,1.5c1.1,0.7,2.3,1.1,3.6,1.2c0.9,0.2,1.7,0.2,2.6,0c1.3-0.1,2.5-0.4,3.6-1.2 c0.7-0.5,1.3-1,2-1.5c0.5-0.7,1-1.3,1.5-2c0.7-1.1,1.1-2.3,1.2-3.6C238.1,540.2,238.1,538.9,237.7,537.6z" fill="#b79892"/></g><g id="change1_7"><path d="M453.1,663.6c-17.5,25-46.1,39.6-74.6,50.5c-33.5,12.8-68.1,19.6-102.3,5.9c-6.1-2.5-13.6-7.8-20.1-8.4 c-6.7-0.7-12.4,5.5-13.8,12.1c-1.3,6.6,0.7,13.3,2.6,19.7c3.5,11.4,7.4,23.3,14.8,32.9c3.6,4.7,7.9,8.6,13.2,11.4 c5.5,2.9,8.8,7.2,13.5,11.4c20.4,18.4,47.3,27.5,72.9,36.1c6,2,12.2,4.1,18.6,3.8c7.9-0.3,15.3-4.2,22.1-8.3 c42.3-25.4,78.7-63.7,93-111c8.1-26.8,8-56.1-0.5-82.8c-3.8-11.8-9.6-27.6-18.8-36.3c-2.1-2-8.4-5.8-9.9-1.8 c-0.7,1.7,1.9,7.4,2.3,9.4c0.6,3.4,0.9,6.8,1,10.3C467.3,634.4,462.2,650.6,453.1,663.6z" fill="#b79892" opacity=".09"/></g><g id="change1_8"><path d="M524.7,280.6c38,44,110.7,52.2,157.5,17.8c32.6-24,50.3-62.6,71.9-96.9c6.3-10,15-20.8,26.8-20.8 c12.6,0.1,21.4,12.6,26.2,24.3c15.2,36.8,14.4,78.9,3,117c-11.4,38.1-32.8,72.6-57.5,103.8c-16.2,20.5-35,40.4-59.4,49.6 c-46.7,17.5-98.1-9.1-136.6-40.8c-46.9-38.7-87.6-88.7-100.8-148.1c-9.1-41.1-2.8-86.8,20-122.6c4.1-6.5,8.9-10.9,17.1-10.9 c5.3,0,11.9,2.2,12.1,8.4c0.2,4-2.4,8.7-3.4,12.6c-1.2,4.9-2.2,9.8-2.8,14.8c-1.3,10-1.3,20.1-0.2,30.1 C501.1,241.3,509.8,263.3,524.7,280.6z" fill="#b79892" opacity=".09"/></g><g id="change1_9"><path d="M886.9,677.6c-28.7,32.4-67.9,49.4-110.2,55.1c-10.3,1.4-20.7-2-31.5,0c0.4-0.1,8,9.7,9,10.7 c3.5,3.3,8.6,5.6,11.6,9.2c2.2,2.7,3.2,6.4,5.3,9.3c3.1,4.4,7,8.2,11.3,11.4c12.7,9.4,28.5,13.4,44.1,15.5c4.7,0.6,9.5,1.1,14.1,0 c8-1.9,14.1-8,19.8-13.8c16.7-17,33.5-34.3,44.9-55.3c7.8-14.4,12.8-30.7,12.5-47.2c-0.1-7.4-0.8-16.5-4.7-23.1 c-5.4-9-7.2-1.8-10.1,4.3C898.9,662.5,893.3,670.4,886.9,677.6z" fill="#b79892" opacity=".09"/></g><g id="change3_1"><path d="M859.7,935.4c-7.7,0-7.7,11.9,0,11.9C867.4,947.3,867.4,935.4,859.7,935.4z" fill="#fff" opacity=".48"/></g><g id="change3_2"><path d="M289.2,584.1c-2.1-0.3-3.7-1.3-5.9-1.1c-2.2,0.1-4.3,1-6.3,1.8c-4.6,1.8-8.7,4.1-12.5,7.2 c-6.8,5.6-14.1,14.5-14.6,23.6c-0.4,7.7,9.4,8.6,13.2,3.6c2-2.7,3.1-6.1,4.9-8.9c1.9-3,4.1-5.7,6.7-8.1c2.4-2.3,5-4.4,7.8-6.1 c1.4-0.9,3.1-1.5,4.4-2.5c1.2-0.9,2-2.5,3-3.2C292,588.8,292.4,584.6,289.2,584.1z" fill="#fff" opacity=".48"/></g><g id="change3_3"><path d="M255.9,656.2c-0.1-0.5-0.2-0.9-0.3-1.4c0-0.1,0-0.1,0-0.2c0-0.1,0-0.1,0-0.2c-0.1-1-0.2-2-0.3-2.9 c-0.3-2.8-2.3-5.6-5.4-5.4c-3.1,0.1-5.3,2.4-5.4,5.4c0,1-0.1,2-0.1,2.9c0,0.1,0,0.5,0,0.7c-0.1,0.3-0.2,0.7-0.2,1 c-0.4,2.1-0.1,4.4,1.6,6c1.2,1.1,2.7,1.8,4.3,1.8C254,664,256.7,660.1,255.9,656.2z" fill="#fff" opacity=".48"/></g><g id="change3_4"><path d="M578,159.1c-2.1-7-9.3-11.9-16-13.9c-7.2-2.1-13.3-0.5-19.5,3.2c-3.3,1.9-1.8,6.9,1.9,7 c4.1,0.1,8.8,2,12.6,3.6c4.4,1.9,7.3,5.2,11.3,7.6C573.2,169.4,579.7,164.7,578,159.1z" fill="#fff" opacity=".48"/></g><g id="change3_5"><path d="M597.6,175.3c-0.5-0.3-1.1-0.7-1.6-1c-0.5-0.3-1-0.7-1.7-0.8c-0.2,0-0.3-0.1-0.5-0.1c-0.1,0-0.1-0.1-0.2-0.1 l-1.1-0.7c-1.3-0.9-3.4-0.5-4.4,0.6c-1,1.1-1.5,3.1-0.6,4.4c0.2,0.4,0.5,0.7,0.7,1.1c0,0.1,0.1,0.1,0.1,0.2c0,0.2,0,0.4,0.1,0.5 c0.2,0.7,0.5,1.1,0.8,1.7c0.3,0.5,0.7,1.1,1,1.6c1.8,2.9,5.9,3.5,8.4,1.1C601.1,181.3,600.5,177.1,597.6,175.3z" fill="#fff" opacity=".48"/></g><g id="change3_6"><path d="M742.7,137.4c-15.8-7.5-38.9-0.6-47.7,14.6c-2.2,3.9,2.3,8.5,6.2,6.2c5.9-3.5,11.5-6.5,18.3-7.9 c6.8-1.4,12.9-0.3,19.7,0.4C746.1,151.3,749,140.3,742.7,137.4z" fill="#fff" opacity=".48"/></g><g id="change3_7"><path d="M874.2,614.3c-0.5-3.6-4.2-6.3-7.8-5.2c-3.8,1.2-7.4,3.1-10.5,5.5c-2,1.5-2.2,5.1,0.8,5.8 c3.7,0.9,7.6,1.3,11.4,0.9C871.8,621,874.8,618.4,874.2,614.3z" fill="#fff" opacity=".48"/></g><g id="change3_8"><path d="M758.9,622.2c-0.6-1.8-1.7-3.5-3.4-4.4c-1.6-0.9-3.9-1.5-5.6-0.7c-3.1,1.3-6.3,2.6-8.7,5 c-1.8,1.7-2.2,4.5-1.3,6.7c1,2.4,3.1,3.5,5.6,3.8c2.6,0.2,5.7-0.6,8.2-1.3C757.5,630.1,760.2,626.1,758.9,622.2z" fill="#fff" opacity=".48"/></g></g></g></svg>