<?xml version="1.0" encoding="UTF-8" standalone="no"?><svg xmlns="http://www.w3.org/2000/svg" xmlns:xlink="http://www.w3.org/1999/xlink" fill="#c9edf7" height="36.1" preserveAspectRatio="xMidYMid meet" version="1" viewBox="4.0 5.9 40.2 36.1" width="40.2" zoomAndPan="magnify"><g><path d="M0,0H48V48H0Z" fill="none"/><g id="change1_1"><path d="M34,42a2,2,0,0,1-1.414-.586l-8.37-8.369L19.6,39.2a2,2,0,0,1-3.5-.568L12.365,27.418l-7.26-3.629a2,2,0,0,1,.17-3.653l36-14A2,2,0,0,1,43.94,8.485l-8,32A2,2,0,0,1,34,42ZM25.439,28.61l7.478,7.478,6.2-24.823L10.93,22.229,14.9,24.211a2,2,0,0,1,1,1.157l2.793,8.378,2.669-3.558-.773-.774a2,2,0,0,1,0-2.828l8-8a2,2,0,0,1,2.828,2.828L24.829,28l.564.565Z"/></g></g></svg>