<?xml version="1.0" encoding="UTF-8"?><svg xmlns="http://www.w3.org/2000/svg" xmlns:xlink="http://www.w3.org/1999/xlink" height="509.8" preserveAspectRatio="xMidYMid meet" version="1.0" viewBox="-5.2 -6.9 459.0 509.8" width="459.0" zoomAndPan="magnify"><g id="change1_1"><path d="M373.2542,149.1035c9.8125-4.9356,19.0175-12.3694,29.2185-14.177 c32.007-5.6713,50.7415,10.8245,50.9943,43.5099c0.2697,34.8705-12.6371,64.4253-35.9196,90.4766 c-22.0552,24.6776-49.4064,41.3233-78.0389,56.4935c-7.6716,4.0646-13.9744,2.2623-21.9993-2.493 c-15.9722-9.4644-19.6262-25.8769-25.3485-40.3169c-15.8697-40.045-25.9203-81.5424-19.0051-125.2136 c3.4853-22.0111,9.812-42.8966,27.1039-58.7364c12.9592-11.8708,27.812-16.8268,44.23-9.8 c14.4672,6.1917,22.8288,18.289,25.0632,34.176C370.7832,131.7714,372.0348,140.5172,373.2542,149.1035z M322.7054,302.8817 c2.7436-1.5469,5.4879-3.205,8.3281-4.6782c23.5296-12.203,45.9621-25.7301,64.2143-45.5917 c15.121-16.4544,26.0907-34.8837,29.415-56.9232c1.3692-9.0785-0.3118-18.7347-1.4275-28.0294 c-0.8316-6.929-6.4255-8.7532-12.0453-6.5506c-6.7861,2.6597-13.8873,5.7727-19.2789,10.4874 c-14.1575,12.3801-24.2132,27.5373-27.7914,46.568c-1.6206,8.6171-8.6583,13.5105-15.9092,12.453 c-8.7308-1.2733-13.9419-7.6604-12.8784-17.0139c0.8028-7.0604,2.6253-14.0125,4.1202-20.9858 c4.7108-21.9751,6.3954-44.1497,2.0159-66.2579c-0.9365-4.7271-5.5522-10.3482-9.9098-12.2238 c-3.087-1.3289-10.2092,1.7215-12.6946,4.9787c-5.8364,7.6491-11.5439,16.0771-14.5227,25.106 c-12.5086,37.9161-6.648,75.6662,3.5136,112.9852C311.9553,272.2637,317.4727,286.9358,322.7054,302.8817z" fill="#C9EDF7"/></g><g id="change2_1"><path d="M85.9518,36.6449c2.2536-4.9934,4.3003-9.5829,6.3911-14.1525 c11.5385-25.2198,39.4246-29.3656,61.2336-11.7584c21.5538,17.4011,28.1925,41.6619,30.5694,67.638 c2.2456,24.5392-1.569,48.2367-13.7115,69.8572c-10.4501,18.6073-21.9841,36.6127-33.2745,54.7374 c-2.004,3.2168-4.9927,5.8996-7.8234,8.5071c-6.6814,6.1544-13.7296,7.3602-21.7462,1.9403 c-37.8967-25.6205-74.6506-52.7194-93.7862-96.1204C2.6016,91.8855-5.2153,65.0495,4.2028,36.8307 C15.1766,3.9515,46.6629,0.8555,69.8807,19.7177C75.7977,24.525,80.5003,30.8262,85.9518,36.6449z M109.5138,190.6463 c2.9211-3.3255,5.2029-5.6434,7.1689-8.2035c25.9564-33.8002,46.5959-69.3123,37.7357-114.6303 c-2.6994-13.8076-7.6263-26.2593-18.7011-35.4966c-9.4746-7.9026-14.8074-6.5341-19.7752,4.5073 c-8.1758,18.171-8.4902,36.8091-3.533,55.7559c2.8606,10.9347-0.374,19.6274-8.6128,22.3537 c-9.0668,3.0002-16.3308-1.9276-20.4748-13.3106c-3.7575-10.3202-7.3596-20.7727-12.1629-30.6142 c-4.514-9.2477-9.5612-18.5888-16.2093-26.3089c-3.9792-4.6208-12.4659-9.5622-17.1228-8.1987 c-4.5031,1.3185-8.6611,10.2484-9.5487,16.333c-3.2833,22.5097,3.2559,43.5969,13.2485,63.4127 C57.0476,147.0251,83.1976,168.3146,109.5138,190.6463z" fill="#FED7FE"/></g><g id="change1_2"><path d="M135.9464,346.42c6.8423-5.8212,12.7212-12.9693,20.2785-16.8515 c23.0907-11.8617,45.6843,7.3381,53.7415,25.85c14.3684,33.013,6.0598,62.9572-13.3184,90.7881 c-12.7751,18.3478-27.7265,34.9673-46.9455,47.0393c-15.4686,9.7159-20.0202,9.3091-32.3918-3.5684 c-25.6137-26.6608-46.2321-56.4524-55.6249-92.8078c-4.4569-17.2507-5.0014-34.6604,1.0255-51.7596 c8.3704-23.749,35.3342-32.0793,55.2404-16.6593C124.8848,333.8213,130.4957,340.8972,135.9464,346.42z M85.8324,403.5506 c0.8117-0.0304,1.6235-0.0606,2.4353-0.091c8.5934,23.9781,22.0314,45.1122,37.7529,64.9824 c3.6126,4.5659,6.5595,2.5974,9.8382,0.3644c21.3609-14.5465,38.2203-33.1468,48.4319-56.9564 c7.3435-17.1221,8.7379-34.7849-3.0649-50.8184c-2.6476-3.5967-8.195-7.1671-12.2202-6.9672 c-3.1409,0.1562-7.1873,5.7171-8.7128,9.6889c-2.8503,7.4214-4.58,15.3583-5.983,23.2221 c-1.1412,6.397-0.8218,13.0411-1.7014,19.5009c-0.9494,6.9716-4.4279,12.946-11.8204,13.8676 c-7.7985,0.9722-12.9292-3.562-14.9468-11.1855c-0.9832-3.7154-1.3787-7.6023-2.5441-11.2506 c-4.4701-13.9904-8.5874-28.1367-13.9964-41.7644c-2.4055-6.0602-8.6119-12.1892-15.3156-9.281 c-4.492,1.9488-8.9446,9.3433-9.2528,14.5461C83.9046,375.3857,85.3124,389.4942,85.8324,403.5506z" fill="#C9EDF7"/></g></svg>